<?xml version="1.0"?>
<svg xmlns="http://www.w3.org/2000/svg" xmlns:xlink="http://www.w3.org/1999/xlink" viewBox="0 0 64 64" width="512" height="512"><defs><linearGradient id="linear-gradient" x1="-1" y1="32" x2="62.198" y2="32" gradientUnits="userSpaceOnUse"><stop offset="0" stop-color="#f9a86d"/><stop offset="0.503" stop-color="#f05361"/><stop offset="1" stop-color="#b72563"/></linearGradient></defs><g id="Gradient_outline" data-name="Gradient outline"><path d="M57.707,6.293a1,1,0,0,0-1.414,0l-4,4A1,1,0,0,0,52,11v6H46.414l1.293-1.293-1.414-1.414L44,16.586l-2.293-2.293-1.414,1.414L41.586,17H34.414l1.293-1.293-1.414-1.414L32,16.586l-2.293-2.293-1.414,1.414L29.586,17H22.414l1.293-1.293-1.414-1.414L20,16.586l-2.293-2.293-1.414,1.414L17.586,17H12V11a1,1,0,0,0-.293-.707l-4-4a1,1,0,0,0-1.414,0l-4,4A1,1,0,0,0,2,11V57a1,1,0,0,0,1,1h8a1,1,0,0,0,1-1V49H23.586l-1.293,1.293,1.414,1.414L26,49.414l2.293,2.293,1.414-1.414L28.414,49h7.172l-1.293,1.293,1.414,1.414L38,49.414l2.293,2.293,1.414-1.414L40.414,49H52v8a1,1,0,0,0,1,1h8a1,1,0,0,0,1-1V11a1,1,0,0,0-.293-.707Zm-11.414,28L44,36.586l-2.293-2.293-1.414,1.414L41.586,37H34.414l1.293-1.293-1.414-1.414L32,36.586l-2.293-2.293-1.414,1.414L29.586,37H22.414l1.293-1.293-1.414-1.414L20,36.586l-2.293-2.293-1.414,1.414L17.586,37H12V29H23.586l-1.293,1.293,1.414,1.414L26,29.414l2.293,2.293,1.414-1.414L28.414,29h7.172l-1.293,1.293,1.414,1.414L38,29.414l2.293,2.293,1.414-1.414L40.414,29H52v8H46.414l1.293-1.293ZM17.586,19l-1.293,1.293,1.414,1.414L20,19.414l2.293,2.293,1.414-1.414L22.414,19h7.172l-1.293,1.293,1.414,1.414L32,19.414l2.293,2.293,1.414-1.414L34.414,19h7.172l-1.293,1.293,1.414,1.414L44,19.414l2.293,2.293,1.414-1.414L46.414,19H52v8H40.414l1.293-1.293-1.414-1.414L38,26.586l-2.293-2.293-1.414,1.414L35.586,27H28.414l1.293-1.293-1.414-1.414L26,26.586l-2.293-2.293-1.414,1.414L23.586,27H12V19ZM4,56V45H6V43H4V35H8V33H4V25H6V23H4V15H8V13H4V11.414l3-3,3,3V17H8v2h2v8H8v2h2V39H6v2h4v8H6v2h4v5Zm36.414-9,1.293-1.293-1.414-1.414L38,46.586l-2.293-2.293-1.414,1.414L35.586,47H28.414l1.293-1.293-1.414-1.414L26,46.586l-2.293-2.293-1.414,1.414L23.586,47H12V39h5.586l-1.293,1.293,1.414,1.414L20,39.414l2.293,2.293,1.414-1.414L22.414,39h7.172l-1.293,1.293,1.414,1.414L32,39.414l2.293,2.293,1.414-1.414L34.414,39h7.172l-1.293,1.293,1.414,1.414L44,39.414l2.293,2.293,1.414-1.414L46.414,39H52v8ZM54,56V54h4V52H54V44h4V42H54V32h2V30H54V22h2V20H54V11.414l3-3,3,3V16H56v2h4v8H58v2h2v8H56v2h4v8H58v2h2v8Z" style="fill:url(#linear-gradient)"/></g></svg>
